<svg width="90" height="90" viewBox="0 0 90 90" fill="none" xmlns="http://www.w3.org/2000/svg">
<g clip-path="url(#clip0)">
<path d="M80.37 37.6201C76.86 37.6201 73.89 40.0501 73.17 43.3801H63.27C62.91 39.6001 61.47 36.0901 59.13 33.3001L66.15 26.2801C67.32 27.0001 68.58 27.4501 70.11 27.4501C74.16 27.4501 77.49 24.1201 77.49 20.0701C77.49 16.0201 74.07 12.6001 70.02 12.6001C65.97 12.6001 62.64 15.9301 62.64 19.9801C62.64 21.4201 63.09 22.7701 63.81 23.9401L56.7 30.9601C53.91 28.6201 50.49 27.1801 46.62 26.8201V16.9201C49.95 16.2001 52.38 13.2301 52.38 9.72009C52.38 5.67009 49.05 2.34009 45 2.34009C40.95 2.34009 37.62 5.67009 37.62 9.72009C37.62 13.2301 40.05 16.2001 43.38 16.9201V26.8201C39.6 27.1801 36.09 28.6201 33.3 30.9601L26.28 23.9401C27 22.7701 27.45 21.5101 27.45 19.9801C27.45 15.9301 24.12 12.6001 20.07 12.6001C16.02 12.6001 12.6 15.9301 12.6 19.9801C12.6 24.0301 15.93 27.3601 19.98 27.3601C21.42 27.3601 22.77 26.9101 23.94 26.1901L30.96 33.2101C28.62 36.0001 27.18 39.4201 26.82 43.2901H16.92C16.2 39.9601 13.23 37.5301 9.71997 37.5301C5.66997 37.5301 2.33997 40.8601 2.33997 44.9101C2.33997 48.9601 5.66997 52.2901 9.71997 52.2901C13.23 52.2901 16.2 49.8601 16.92 46.5301H26.82C27.18 50.3101 28.62 53.8201 30.96 56.6101L23.94 63.6301C22.77 62.9101 21.42 62.4601 19.98 62.4601C15.93 62.4601 12.6 65.7901 12.6 69.8401C12.6 73.8901 15.93 77.2201 19.98 77.2201C24.03 77.2201 27.36 73.8901 27.36 69.8401C27.36 68.4001 26.91 67.0501 26.19 65.8801L33.21 58.8601C36 61.2001 39.42 62.6401 43.29 63.0001V72.9001C39.96 73.6201 37.53 76.5901 37.53 80.1001C37.53 84.1501 40.86 87.4801 44.91 87.4801C48.96 87.4801 52.29 84.1501 52.29 80.1001C52.29 76.5901 49.86 73.6201 46.53 72.9001V63.0001C50.31 62.6401 53.82 61.2001 56.61 58.8601L63.63 65.8801C62.91 67.0501 62.46 68.4001 62.46 69.8401C62.46 73.8901 65.79 77.2201 69.84 77.2201C73.89 77.2201 77.22 73.8901 77.22 69.8401C77.22 65.7901 73.89 62.4601 69.84 62.4601C68.4 62.4601 67.05 62.9101 65.88 63.6301L59.04 56.7001C61.38 53.9101 62.82 50.4901 63.18 46.6201H73.08C73.8 49.9501 76.77 52.3801 80.28 52.3801C84.33 52.3801 87.66 49.0501 87.66 45.0001C87.66 40.9501 84.42 37.6201 80.37 37.6201ZM9.62997 49.0501C7.37997 49.0501 5.57997 47.2501 5.57997 45.0001C5.57997 42.7501 7.37997 40.9501 9.62997 40.9501C11.88 40.9501 13.68 42.7501 13.68 45.0001C13.77 47.2501 11.88 49.0501 9.62997 49.0501ZM70.02 15.9301C72.27 15.9301 74.07 17.7301 74.07 19.9801C74.07 22.2301 72.27 24.0301 70.02 24.0301C67.77 24.0301 65.97 22.2301 65.97 19.9801C65.97 17.7301 67.77 15.9301 70.02 15.9301ZM57.15 36.0901C55.44 36.9001 53.73 37.5301 52.02 37.9801C51.57 35.1901 50.85 32.7601 49.95 30.7801C52.83 31.8601 55.35 33.6601 57.15 36.0901ZM49.14 45.0001C49.14 46.0801 49.05 47.0701 49.05 48.0601C46.35 47.7001 43.65 47.7001 41.04 48.0601C40.95 47.0701 40.95 46.0801 40.95 45.0001C40.95 43.9201 41.04 42.9301 41.04 41.9401C42.39 42.1201 43.74 42.2101 45.09 42.2101C46.44 42.2101 47.79 42.1201 49.14 41.9401C49.05 42.9301 49.14 43.9201 49.14 45.0001ZM45 60.0301C44.1 60.0301 42.21 57.0601 41.31 51.3001C43.74 50.9401 46.26 50.9401 48.69 51.3001C47.79 57.0601 45.9 60.0301 45 60.0301ZM41.31 38.6101C42.21 32.8501 44.1 29.8801 45 29.8801C45.9 29.8801 47.79 32.8501 48.69 38.6101C46.26 38.9701 43.74 38.9701 41.31 38.6101ZM40.95 9.63009C40.95 7.38009 42.75 5.58009 45 5.58009C47.25 5.58009 49.05 7.38009 49.05 9.63009C49.05 11.8801 47.25 13.6801 45 13.6801C42.75 13.6801 40.95 11.8801 40.95 9.63009ZM40.14 30.7801C39.24 32.7601 38.52 35.1901 38.07 37.9801C36.27 37.5301 34.56 36.9001 32.94 36.0901C34.65 33.6601 37.17 31.8601 40.14 30.7801ZM19.98 24.1201C17.73 24.1201 15.93 22.3201 15.93 20.0701C15.93 17.8201 17.73 16.0201 19.98 16.0201C22.23 16.0201 24.03 17.8201 24.03 20.0701C24.03 22.3201 22.23 24.1201 19.98 24.1201ZM31.23 38.9701C33.3 39.9601 35.46 40.7701 37.71 41.3101C37.62 42.4801 37.53 43.7401 37.53 44.9101C37.53 46.1701 37.62 47.3401 37.71 48.5101C35.46 49.0501 33.3 49.8601 31.23 50.8501C30.42 49.0501 29.97 46.9801 29.97 44.8201C29.97 42.8401 30.42 40.8601 31.23 38.9701ZM19.98 74.0701C17.73 74.0701 15.93 72.2701 15.93 70.0201C15.93 67.7701 17.73 65.9701 19.98 65.9701C22.23 65.9701 24.03 67.7701 24.03 70.0201C24.03 72.2701 22.23 74.0701 19.98 74.0701ZM32.94 53.9101C34.65 53.1001 36.36 52.4701 38.07 52.0201C38.52 54.8101 39.24 57.2401 40.14 59.2201C37.17 58.1401 34.65 56.3401 32.94 53.9101ZM49.05 80.3701C49.05 82.6201 47.25 84.4201 45 84.4201C42.75 84.4201 40.95 82.6201 40.95 80.3701C40.95 78.1201 42.75 76.3201 45 76.3201C47.25 76.3201 49.05 78.1201 49.05 80.3701ZM49.86 59.2201C50.76 57.2401 51.48 54.8101 51.93 52.0201C53.73 52.4701 55.44 53.1001 57.06 53.9101C55.35 56.3401 52.83 58.1401 49.86 59.2201ZM70.02 65.8801C72.27 65.8801 74.07 67.6801 74.07 69.9301C74.07 72.1801 72.27 73.9801 70.02 73.9801C67.77 73.9801 65.97 72.1801 65.97 69.9301C65.97 67.6801 67.77 65.8801 70.02 65.8801ZM58.77 51.0301C56.7 50.0401 54.54 49.2301 52.29 48.6901C52.38 47.5201 52.47 46.2601 52.47 45.0901C52.47 43.8301 52.38 42.6601 52.29 41.4901C54.54 40.9501 56.7 40.1401 58.77 39.1501C59.58 40.9501 60.03 43.0201 60.03 45.1801C60.03 47.1601 59.58 49.1401 58.77 51.0301ZM80.37 49.0501C78.12 49.0501 76.32 47.2501 76.32 45.0001C76.32 42.7501 78.12 40.9501 80.37 40.9501C82.62 40.9501 84.42 42.7501 84.42 45.0001C84.42 47.2501 82.62 49.0501 80.37 49.0501Z" fill="#F6A055"/>
</g>
<defs>
<clipPath id="clip0">
<rect width="90" height="90" fill="white"/>
</clipPath>
</defs>
</svg>
