<svg width="102" height="90" viewBox="0 0 102 90" fill="none" xmlns="http://www.w3.org/2000/svg">
<path fill-rule="evenodd" clip-rule="evenodd" d="M38.4662 61.0123C39.4265 61.0123 40.0625 61.6471 40.0625 62.6054C40.0625 63.5638 39.4265 64.1986 38.4662 64.1986H10.8485C9.88823 64.1986 9.2522 63.5638 9.2522 62.6054C9.2522 61.6471 9.88823 61.0123 10.8485 61.0123H38.4662ZM1.59631 47.6331H29.214C30.1743 47.6331 30.8103 48.2678 30.8103 49.2262C30.8103 50.1313 30.243 50.7478 29.371 50.8135L29.214 50.8193H1.59631C0.636033 50.8193 0 50.1846 0 49.2262C0 48.3211 0.567326 47.7046 1.43932 47.6389L1.59631 47.6331H29.214H1.59631ZM10.8485 34.2538H38.4662C39.4265 34.2538 40.0625 34.8886 40.0625 35.847C40.0625 36.7521 39.4952 37.3686 38.6232 37.4343L38.4662 37.4401H10.8485C9.89446 37.4401 9.2522 36.7991 9.2522 35.847C9.2522 34.9418 9.81953 34.3254 10.6915 34.2597L10.8485 34.2538H38.4662H10.8485ZM97.6691 31.7978C100.454 37.2259 102 43.3735 102 49.8607C102 72.0086 83.9601 90.0124 61.7682 90C51.0746 90 41.0159 85.8616 33.3524 78.2132C32.7163 77.5785 32.7163 76.6201 33.3524 75.9854C33.9883 75.3506 34.9486 75.3506 35.5846 75.9854C42.6052 82.999 51.8651 86.82 61.7609 86.82C82.1952 86.82 98.7936 70.2545 98.7936 49.8607C98.7936 44.2973 97.5428 39.0024 95.3013 34.2585L97.6691 31.7978ZM92.7742 36.8853C94.4983 40.9162 95.4525 45.3543 95.4525 50.0158C95.4525 68.4988 80.4504 83.4718 61.93 83.4718C55.0716 83.4718 48.5242 81.3994 42.9371 77.5784C42.139 77.1056 41.9769 76.1472 42.457 75.3506C42.9371 74.7156 43.8974 74.5538 44.8514 75.0205C49.7958 78.5242 55.7073 80.2792 61.9303 80.2792C78.6915 80.2792 92.2602 66.7374 92.2602 50.0094C92.2602 46.2777 91.5849 42.7046 90.3496 39.405L92.7742 36.8853ZM92.3572 22.9701C93.7801 22.7759 95.1684 23.5139 95.7955 24.8002C96.4269 26.0907 96.1544 27.636 95.1251 28.633C83.3837 40.3777 74.8974 49.9036 63.0176 61.7819C61.8023 63.012 59.8432 63.1027 58.5198 61.9891L44.1267 49.8345C43.4477 49.269 43.0239 48.4576 42.9504 47.5771C42.8725 46.6965 43.1493 45.8247 43.7202 45.1513C44.2912 44.4737 45.1085 44.055 45.9864 43.9816C46.8687 43.9083 47.7423 44.1888 48.417 44.7586L60.4573 54.9104C71.0351 44.2099 79.3343 35.0597 90.4192 23.9715C90.9338 23.4319 91.6171 23.078 92.3567 22.9701L92.3572 22.9701ZM61.93 16.5597C70.3877 16.5597 78.1118 19.6824 84.0085 24.836L81.8032 27.1348C76.482 22.5271 69.5347 19.7397 61.9303 19.7397C55.5444 19.7397 49.315 21.6565 44.2081 25.4775C43.41 25.9567 42.456 25.7949 41.9758 25.1602C41.4957 24.5254 41.6578 23.4115 42.2938 22.9323C48.0434 18.7876 54.9088 16.5597 61.93 16.5597ZM69.1141 0C70.0744 0 70.7104 0.634773 70.7104 1.59314C70.7104 2.49827 70.1431 3.11476 69.2711 3.18047L69.1141 3.18629H63.3649V9.87622C72.7479 10.1871 81.2149 13.7109 87.8577 19.3944L88.2705 19.7524L88.5839 20.0654L86.3568 22.3882C79.7486 16.5891 71.127 13.0561 61.7612 13.0561C51.548 13.0561 41.9702 17.2009 34.7868 24.6874C34.1508 25.3221 33.1906 25.3221 32.5545 24.6874C31.9185 24.0527 31.9185 23.0943 32.5545 22.4595C39.7672 14.7975 49.2809 10.5129 59.5983 9.90615L60.1723 9.87622V3.18629H54.5852C53.6249 3.18629 52.9889 2.55152 52.9889 1.59314C52.9889 0.688016 53.5562 0.0715291 54.4282 0.00582417L54.5852 0H69.1141Z" fill="#F6A055"/>
</svg>
