<svg width="90" height="90" viewBox="0 0 90 90" fill="none" xmlns="http://www.w3.org/2000/svg">
<path d="M14.0625 87.1875H75.9375C76.3105 87.1875 76.6681 87.0393 76.9319 86.7756C77.1956 86.5119 77.3438 86.1542 77.3438 85.7812V4.21875C77.3438 3.84579 77.1956 3.4881 76.9319 3.22438C76.6681 2.96066 76.3105 2.8125 75.9375 2.8125H14.0625C13.6895 2.8125 13.3319 2.96066 13.0681 3.22438C12.8044 3.4881 12.6562 3.84579 12.6562 4.21875V85.7812C12.6562 86.1542 12.8044 86.5119 13.0681 86.7756C13.3319 87.0393 13.6895 87.1875 14.0625 87.1875ZM15.4688 5.625H74.5312V84.375H15.4688V5.625Z" fill="#F6A055"/>
<path d="M60.4687 47.8125C58.1385 47.8103 55.8653 48.5324 53.9635 49.8787C52.0618 51.2251 50.6254 53.1292 49.8532 55.3277C49.081 57.5261 49.0111 59.9103 49.6532 62.1502C50.2954 64.3901 51.6177 66.375 53.4374 67.8305V80.1563C53.4374 80.4174 53.5101 80.6734 53.6474 80.8956C53.7847 81.1177 53.9812 81.2973 54.2148 81.414C54.4484 81.5308 54.7099 81.5803 54.97 81.5568C55.2301 81.5334 55.4785 81.438 55.6874 81.2813L60.4687 77.6953L65.2499 81.2813C65.4589 81.438 65.7073 81.5334 65.9674 81.5568C66.2275 81.5803 66.489 81.5308 66.7226 81.414C66.9562 81.2973 67.1526 81.1177 67.2899 80.8956C67.4272 80.6734 67.4999 80.4174 67.4999 80.1563V67.8305C69.3196 66.375 70.642 64.3901 71.2841 62.1502C71.9262 59.9103 71.8564 57.5261 71.0842 55.3277C70.312 53.1292 68.8756 51.2251 66.9738 49.8787C65.072 48.5324 62.7988 47.8103 60.4687 47.8125ZM64.6874 77.3438L61.3124 74.8125C61.069 74.6299 60.7729 74.5313 60.4687 74.5313C60.1644 74.5313 59.8683 74.6299 59.6249 74.8125L56.2499 77.3438V69.4842C58.954 70.5885 61.9833 70.5885 64.6874 69.4842V77.3438ZM60.4687 67.5C58.7999 67.5 57.1686 67.0052 55.7811 66.078C54.3935 65.1509 53.3121 63.8331 52.6734 62.2914C52.0348 60.7496 51.8677 59.0531 52.1933 57.4164C52.5189 55.7797 53.3225 54.2763 54.5025 53.0963C55.6825 51.9163 57.1859 51.1127 58.8226 50.7871C60.4593 50.4616 62.1558 50.6287 63.6976 51.2673C65.2393 51.9059 66.5571 52.9873 67.4842 54.3749C68.4113 55.7624 68.9062 57.3937 68.9062 59.0625C68.9039 61.2996 68.0143 63.4444 66.4324 65.0263C64.8506 66.6081 62.7058 67.4978 60.4687 67.5Z" fill="#F6A055"/>
<path d="M54.8438 11.25H35.1562V14.0625H54.8438V11.25Z" fill="#F6A055"/>
<path d="M50.625 16.875H39.375V19.6875H50.625V16.875Z" fill="#F6A055"/>
<path d="M67.5 23.9062H21.0938V26.7188H67.5V23.9062Z" fill="#F6A055"/>
<path d="M67.5 29.5312H21.0938V32.3438H67.5V29.5312Z" fill="#F6A055"/>
<path d="M67.5 35.1562H21.0938V37.9688H67.5V35.1562Z" fill="#F6A055"/>
<path d="M67.5 40.7812H21.0938V43.5938H67.5V40.7812Z" fill="#F6A055"/>
<path d="M45 46.4062H21.0938V49.2188H45V46.4062Z" fill="#F6A055"/>
<path d="M30.9375 63.2812H22.5V66.0938H30.9375V63.2812Z" fill="#F6A055"/>
<path d="M30.9375 68.9062H22.5V71.7188H30.9375V68.9062Z" fill="#F6A055"/>
<path d="M30.9375 74.5312H22.5V77.3438H30.9375V74.5312Z" fill="#F6A055"/>
</svg>
