<svg width="90" height="90" viewBox="0 0 90 90" fill="none" xmlns="http://www.w3.org/2000/svg">
<path d="M14.4 5.3999C9.45078 5.3999 5.40002 9.45066 5.40002 14.3999C5.40002 19.3491 9.45078 23.3999 14.4 23.3999C16.256 23.3999 17.9974 22.8261 19.4344 21.853L31.8656 32.7374C28.8585 35.9556 27 40.2609 27 44.9999C27 49.7247 28.8464 54.0191 31.8375 57.2343L19.4063 68.1187C17.9755 67.1585 16.2425 66.5999 14.4 66.5999C9.45078 66.5999 5.40002 70.6506 5.40002 75.5999C5.40002 80.5492 9.45078 84.5999 14.4 84.5999C19.3493 84.5999 23.4 80.5492 23.4 75.5999C23.4 73.8014 22.8561 72.1161 21.9375 70.7062L34.5938 59.653C37.5365 61.7504 41.121 62.9999 45 62.9999C48.879 62.9999 52.4635 61.7504 55.4063 59.653L68.0625 70.7062C67.144 72.1161 66.6 73.8014 66.6 75.5999C66.6 80.5492 70.6508 84.5999 75.6 84.5999C80.5493 84.5999 84.6 80.5492 84.6 75.5999C84.6 70.6506 80.5493 66.5999 75.6 66.5999C73.7576 66.5999 72.0246 67.1585 70.5938 68.1187L58.1625 57.2343C61.1537 54.0191 63 49.7247 63 44.9999C63 40.2609 61.1416 35.9556 58.1344 32.7374L70.5657 21.853C72.0027 22.8261 73.7441 23.3999 75.6 23.3999C80.5493 23.3999 84.6 19.3491 84.6 14.3999C84.6 9.45066 80.5493 5.3999 75.6 5.3999C70.6508 5.3999 66.6 9.45066 66.6 14.3999C66.6 16.1899 67.1519 17.8597 68.0625 19.2655L55.3781 30.3468C52.4388 28.2574 48.8709 26.9999 45 26.9999C41.1292 26.9999 37.5612 28.2574 34.6219 30.3468L21.9375 19.2655C22.8481 17.8597 23.4 16.1899 23.4 14.3999C23.4 9.45066 19.3493 5.3999 14.4 5.3999ZM14.4 8.9999C17.4037 8.9999 19.8 11.3962 19.8 14.3999C19.8 17.4036 17.4037 19.7999 14.4 19.7999C11.3964 19.7999 9.00002 17.4036 9.00002 14.3999C9.00002 11.3962 11.3964 8.9999 14.4 8.9999ZM75.6 8.9999C78.6037 8.9999 81 11.3962 81 14.3999C81 17.4036 78.6037 19.7999 75.6 19.7999C72.5964 19.7999 70.2 17.4036 70.2 14.3999C70.2 11.3962 72.5964 8.9999 75.6 8.9999ZM45 30.5999C52.9742 30.5999 59.4 37.0257 59.4 44.9999C59.4 52.9741 52.9742 59.3999 45 59.3999C37.0258 59.3999 30.6 52.9741 30.6 44.9999C30.6 37.0257 37.0258 30.5999 45 30.5999ZM14.4 70.1999C17.4037 70.1999 19.8 72.5962 19.8 75.5999C19.8 78.6036 17.4037 80.9999 14.4 80.9999C11.3964 80.9999 9.00002 78.6036 9.00002 75.5999C9.00002 72.5962 11.3964 70.1999 14.4 70.1999ZM75.6 70.1999C78.6037 70.1999 81 72.5962 81 75.5999C81 78.6036 78.6037 80.9999 75.6 80.9999C72.5964 80.9999 70.2 78.6036 70.2 75.5999C70.2 72.5962 72.5964 70.1999 75.6 70.1999Z" fill="#F6A055"/>
</svg>
