<svg version="1.1" xmlns="http://www.w3.org/2000/svg" width="15" height="15" viewBox="200 0 560 560" preserveAspectRatio="xMidYMid meet">
    <path fill="#505050" d="M480,0C325.6,0,200,125.6,200,280s125.6,280,280,280s280-125.6,280-280S634.4,0,480,0z M614.6,301.5H501.5 V420c0,11.9-9.6,21.5-21.5,21.5s-21.5-9.6-21.5-21.5V301.5H345.4c-11.9,0-21.5-9.6-21.5-21.5s9.6-21.5,21.5-21.5h113.1V150.8 c0-11.9,9.6-21.5,21.5-21.5s21.5,9.6,21.5,21.5v107.7h113.1c11.9,0,21.5,9.6,21.5,21.5S626.5,301.5,614.6,301.5z"/>
</svg>