<svg version="1.1" xmlns="http://www.w3.org/2000/svg" width="15" height="15" viewBox="201.9 0 556.2 560" preserveAspectRatio="xMidYMid meet">
    <path fill="#505050" d="M743,323.9L710.1,305c0.9-8.2,1.3-16.5,1.3-25s-0.5-16.8-1.3-25l32.8-18.9c7-4,12-10.6,14.1-18.4 c2.1-7.8,1-16-3-23L690.9,85.3c-5.4-9.4-15.5-15.2-26.3-15.2c-5.3,0-10.5,1.4-15.1,4.1l-32.9,19c-13.4-9.8-27.8-18.2-43.2-25V30.3 c0-16.7-13.6-30.3-30.3-30.3H416.9c-16.7,0-30.3,13.6-30.3,30.3v37.9c-15.3,6.8-29.8,15.2-43.2,25l-32.9-19 c-4.6-2.7-9.8-4.1-15.1-4.1c-10.8,0-20.9,5.8-26.3,15.2L206,194.7c-4.1,7-5.1,15.2-3,23c2.1,7.8,7.1,14.4,14.1,18.4l32.8,18.9 c-0.9,8.2-1.3,16.5-1.3,25s0.5,16.8,1.3,25L217,323.9c-7,4-12,10.6-14.1,18.4c-2.1,7.8-1,16,3,23l63.1,109.3 c5.4,9.4,15.5,15.2,26.3,15.2c5.3,0,10.5-1.4,15.1-4.1l32.9-19c13.4,9.8,27.8,18.2,43.2,25v37.9c0,8.1,3.2,15.7,8.9,21.4 c5.7,5.7,13.3,8.9,21.4,8.9h126.3c16.7,0,30.3-13.6,30.3-30.3v-37.9c15.3-6.8,29.8-15.2,43.2-25l32.9,19c4.6,2.7,9.8,4.1,15.1,4.1 c10.8,0,20.9-5.8,26.3-15.2L754,365.3c4-7,5.1-15.2,3-23C755,334.5,750,328,743,323.9z M480,444.6c-32.9,0-63.6-9.7-89.3-26.3 l55.6-55.6c11.6,5,24.3,7.7,37.4,7.7c0,0,0,0,0,0c25.3,0,49.1-9.9,67-27.8c24.4-24.5,33.5-60.3,23.8-93.5c-0.6-1.9-2.1-3.4-4.1-3.9 c-1.9-0.5-4,0.1-5.4,1.5l-59.6,59.7c-3.6-1.5-12.6-6.4-29.2-23c-16.7-16.6-21.6-25.6-23.1-29.2l59.6-59.7c1.4-1.4,2-3.5,1.5-5.4 c-0.5-1.9-2-3.5-3.9-4c-8.6-2.5-17.5-3.8-26.4-3.8c-25.3,0-49.1,9.9-67,27.8c-17.8,17.9-27.6,41.7-27.6,66.9c0,13,2.7,25.6,7.7,37.2 l-55.5,55.5c-16.4-25.6-25.8-56-25.8-88.6c0-90.9,73.7-164.6,164.6-164.6S644.6,189.1,644.6,280S570.9,444.6,480,444.6z"/>
</svg>