<svg width="85" height="85" viewBox="0 0 85 85" fill="none" xmlns="http://www.w3.org/2000/svg">
<path d="M45.0063 4.11111C50.3988 4.11111 52.0932 7.89445 53.5148 11.6718C54.112 13.2759 68.1252 50.8127 68.5466 51.9394C68.6587 52.2537 68.5829 52.7696 68.0888 52.9564C67.5917 53.1402 60.3108 55.9095 59.9076 56.0578C59.5045 56.209 59.0528 55.9896 58.9073 55.5953C58.7558 55.2068 55.7337 47.0235 55.3942 46.1102H34.6244C34.297 47.0235 31.2386 55.2246 31.1022 55.5953C30.9627 55.9718 30.5293 56.2268 30.0988 56.0578C29.6684 55.8918 22.3602 53.1224 21.9237 52.9564C21.5054 52.7963 21.3144 52.3308 21.4599 51.9394C21.9752 50.534 35.7763 13.5991 36.4795 11.6718C37.8496 7.95078 39.6016 4.11111 45.0063 4.11111ZM20.3505 67.6551C19.914 67.6551 19.5654 68.0109 19.5654 68.4438V77.2172C19.5654 77.6501 19.914 78 20.3505 78H69.6408C70.0864 78 70.435 77.6501 70.435 77.2172V68.4438C70.435 68.0109 70.0864 67.6551 69.6408 67.6551H20.3505ZM44.9578 16.3684L37.9375 36.9899H52.0932L45.0487 16.3684H44.9578Z" fill="#EE2A23"/>
</svg>
