<svg width="85" height="85" viewBox="0 0 85 85" fill="none" xmlns="http://www.w3.org/2000/svg">
<path d="M42.5 80C63.2107 80 80 63.2107 80 42.5C80 21.7893 63.2107 5 42.5 5C21.7893 5 5 21.7893 5 42.5C5 63.2107 21.7893 80 42.5 80Z" fill="#FFC800"/>
<path d="M46.7648 14.5143C44.6453 18.6015 39.8569 23.2652 33.5507 26.907C27.2184 30.575 20.8338 32.3828 16.2285 32.1732C13.6903 32.0422 10.655 31.2038 9.79148 28.5052C9.11115 26.4092 9.92231 23.7368 11.8586 20.8809C12.1726 20.4355 12.4866 19.9901 12.8268 19.5709C15.7313 15.7719 19.4208 12.4969 23.8168 9.95544C28.2127 7.41401 32.8966 5.8682 37.6327 5.23939C38.1822 5.16079 38.7317 5.10839 39.2289 5.05599C42.6305 4.79399 45.378 5.449 46.8433 7.07341C48.7273 9.19563 47.9423 12.2611 46.7648 14.5143ZM73.7425 21.6931C73.2192 20.9333 72.6959 20.1735 72.1464 19.4661C68.8232 15.1693 64.7151 11.7633 60.1359 9.32663C61.4181 10.165 62.4386 11.213 63.1713 12.4969C63.5376 13.1519 63.8254 13.8331 64.0348 14.5667C64.8198 17.3177 64.3749 20.5403 62.9096 23.894C59.9528 30.6798 52.8616 38.0945 43.2062 43.6751C33.5507 49.2558 23.5813 51.7186 16.2285 50.8802C12.5913 50.461 9.58215 49.2558 7.59349 47.186C7.07016 46.662 6.62533 46.0594 6.259 45.4044C5.50017 44.0943 5.10767 42.6533 5.02917 41.0813C4.81983 46.3214 5.73566 51.6662 7.82899 56.7491C8.14299 57.5089 8.48315 58.2687 8.84948 59.0023C8.87565 59.0285 8.87565 59.0547 8.90182 59.1071C10.2625 61.4651 12.2773 63.2991 14.7631 64.6615C23.5813 69.3776 38.4962 67.7532 52.4168 59.7097C66.3374 51.64 75.2079 39.5355 75.548 29.527C75.6789 26.6974 75.077 24.0512 73.7425 21.6931ZM58.6444 70.4256C45.9275 77.7879 32.1116 79.0979 23.2934 74.6962C34.5712 81.4297 49.0675 82.0061 61.2611 74.9582C73.4547 67.9104 80.1795 55.046 79.9964 41.8935C79.3945 51.7448 71.3614 63.0633 58.6444 70.4256Z" fill="black"/>
<path opacity="0.5" d="M42.5 80C63.2107 80 80 63.2107 80 42.5C80 21.7893 63.2107 5 42.5 5C21.7893 5 5 21.7893 5 42.5C5 63.2107 21.7893 80 42.5 80Z" fill="url(#paint0_radial_2544_5295)"/>
<defs>
<radialGradient id="paint0_radial_2544_5295" cx="0" cy="0" r="1" gradientUnits="userSpaceOnUse" gradientTransform="translate(42.5105 42.4921) rotate(-30.0041) scale(37.5141)">
<stop offset="0.5" stop-color="white" stop-opacity="0"/>
<stop offset="1" stop-color="white" stop-opacity="0.35"/>
</radialGradient>
</defs>
</svg>
