<svg width="48" height="40" viewBox="0 0 48 40" fill="none" xmlns="http://www.w3.org/2000/svg">
<path d="M47.84 30.8391C47.84 34.9193 44.5175 38.2417 40.4373 38.2417H0.159973V8.92261C0.159973 4.84242 3.48242 1.51997 7.56261 1.51997H47.84V30.8391Z" fill="white"/>
<path d="M34.725 23.3199H37.7852C37.8726 23.3199 38.0766 23.2907 38.1641 23.2907C38.7469 23.1742 39.2424 22.6496 39.2424 21.921C39.2424 21.2215 38.7469 20.6969 38.1641 20.5512C38.0766 20.522 37.9018 20.522 37.7852 20.522H34.725V23.3199Z" fill="url(#paint0_linear_2557_5818)"/>
<path d="M37.4354 3.99724C34.521 3.99724 32.1312 6.35792 32.1312 9.30149V14.8098H39.6213C39.7961 14.8098 40.0001 14.8098 40.1459 14.8389C41.8362 14.9263 43.0894 15.8007 43.0894 17.3162C43.0894 18.5111 42.2442 19.5311 40.6704 19.7351V19.7934C42.39 19.91 43.7014 20.8718 43.7014 22.3581C43.7014 23.9611 42.2442 25.0103 40.3207 25.0103H32.1021V35.7936H39.8836C42.798 35.7936 45.1878 33.4329 45.1878 30.4894V3.99724H37.4354Z" fill="url(#paint1_linear_2557_5818)"/>
<path d="M38.8635 17.6659C38.8635 16.9664 38.3681 16.5001 37.7852 16.4127C37.7269 16.4127 37.5812 16.3835 37.4937 16.3835H34.725V18.9482H37.4937C37.5812 18.9482 37.756 18.9482 37.7852 18.9191C38.3681 18.8317 38.8635 18.3654 38.8635 17.6659Z" fill="url(#paint2_linear_2557_5818)"/>
<path d="M8.11636 3.99724C5.20193 3.99724 2.8121 6.35792 2.8121 9.30149V22.3873C4.29846 23.1159 5.84311 23.5822 7.38775 23.5822C9.22384 23.5822 10.2147 22.4747 10.2147 20.9592V14.7806H14.7612V20.93C14.7612 23.3199 13.2749 25.2725 8.23293 25.2725C5.17279 25.2725 2.78296 24.6022 2.78296 24.6022V35.7645H10.5645C13.4789 35.7645 15.8687 33.4038 15.8687 30.4602V3.99724H8.11636Z" fill="url(#paint3_linear_2557_5818)"/>
<path d="M22.7759 3.99724C19.8615 3.99724 17.4717 6.35792 17.4717 9.30149V16.2378C18.8123 15.1012 21.1439 14.3726 24.9035 14.5475C26.9144 14.6349 29.0711 15.1886 29.0711 15.1886V17.4327C27.9928 16.879 26.7104 16.3835 25.0492 16.267C22.193 16.063 20.4735 17.4619 20.4735 19.91C20.4735 22.3873 22.193 23.7862 25.0492 23.553C26.7104 23.4365 27.9928 22.9119 29.0711 22.3873V24.6314C29.0711 24.6314 26.9436 25.1851 24.9035 25.2725C21.1439 25.4474 18.8123 24.7188 17.4717 23.5822V35.8228H25.2532C28.1676 35.8228 30.5574 33.4621 30.5574 30.5185V3.99724H22.7759Z" fill="url(#paint4_linear_2557_5818)"/>
<defs>
<linearGradient id="paint0_linear_2557_5818" x1="32.1263" y1="21.9244" x2="45.223" y2="21.9244" gradientUnits="userSpaceOnUse">
<stop stop-color="#007940"/>
<stop offset="0.2285" stop-color="#00873F"/>
<stop offset="0.7433" stop-color="#40A737"/>
<stop offset="1" stop-color="#5CB531"/>
</linearGradient>
<linearGradient id="paint1_linear_2557_5818" x1="32.1259" y1="19.8827" x2="45.2236" y2="19.8827" gradientUnits="userSpaceOnUse">
<stop stop-color="#007940"/>
<stop offset="0.2285" stop-color="#00873F"/>
<stop offset="0.7433" stop-color="#40A737"/>
<stop offset="1" stop-color="#5CB531"/>
</linearGradient>
<linearGradient id="paint2_linear_2557_5818" x1="32.126" y1="17.6622" x2="45.2232" y2="17.6622" gradientUnits="userSpaceOnUse">
<stop stop-color="#007940"/>
<stop offset="0.2285" stop-color="#00873F"/>
<stop offset="0.7433" stop-color="#40A737"/>
<stop offset="1" stop-color="#5CB531"/>
</linearGradient>
<linearGradient id="paint3_linear_2557_5818" x1="2.80593" y1="19.8827" x2="16.1053" y2="19.8827" gradientUnits="userSpaceOnUse">
<stop stop-color="#1F286F"/>
<stop offset="0.4751" stop-color="#004E94"/>
<stop offset="0.8261" stop-color="#0066B1"/>
<stop offset="1" stop-color="#006FBC"/>
</linearGradient>
<linearGradient id="paint4_linear_2557_5818" x1="17.3963" y1="19.8827" x2="30.3131" y2="19.8827" gradientUnits="userSpaceOnUse">
<stop stop-color="#6C2C2F"/>
<stop offset="0.1735" stop-color="#882730"/>
<stop offset="0.5731" stop-color="#BE1833"/>
<stop offset="0.8585" stop-color="#DC0436"/>
<stop offset="1" stop-color="#E60039"/>
</linearGradient>
</defs>
</svg>
