<svg width="48" height="40" viewBox="0 0 48 40" fill="none" xmlns="http://www.w3.org/2000/svg">
<g clip-path="url(#clip0_2557_5787)">
<path d="M28.9472 10.8541H19.0264V28.7084H28.9472V10.8541Z" fill="#FF5F00"/>
<path d="M19.6564 19.7812C19.6548 18.0617 20.0439 16.3644 20.7942 14.8177C21.5444 13.2711 22.6362 11.9157 23.9869 10.8541C22.3143 9.53741 20.3055 8.71861 18.1902 8.49124C16.0749 8.26387 13.9385 8.63709 12.025 9.56827C10.1115 10.4994 8.49815 11.951 7.36946 13.757C6.24076 15.563 5.64221 17.6506 5.64221 19.7812C5.64221 21.9118 6.24076 23.9994 7.36946 25.8054C8.49815 27.6114 10.1115 29.063 12.025 29.9942C13.9385 30.9253 16.0749 31.2986 18.1902 31.0712C20.3055 30.8438 22.3143 30.025 23.9869 28.7084C22.6362 27.6467 21.5444 26.2913 20.7942 24.7447C20.0439 23.198 19.6548 21.5007 19.6564 19.7812Z" fill="#EB001B"/>
<path d="M42.331 19.7812C42.3311 21.9118 41.7326 23.9994 40.6039 25.8054C39.4753 27.6114 37.8621 29.0629 35.9486 29.9941C34.0351 30.9253 31.8987 31.2986 29.7834 31.0712C27.6681 30.8438 25.6594 30.025 23.9869 28.7084C25.3363 27.6457 26.4273 26.29 27.1774 24.7436C27.9276 23.1972 28.3173 21.5004 28.3173 19.7812C28.3173 18.062 27.9276 16.3652 27.1774 14.8188C26.4273 13.2724 25.3363 11.9167 23.9869 10.8541C25.6594 9.53741 27.6681 8.71861 29.7834 8.49124C31.8987 8.26387 34.0351 8.63711 35.9486 9.5683C37.8621 10.4995 39.4753 11.951 40.6039 13.757C41.7326 15.5631 42.3311 17.6507 42.331 19.7812Z" fill="#F79E1B"/>
<path d="M41.2494 26.8173V26.4518H41.3965V26.3773H41.0217V26.4518H41.169V26.8173H41.2494ZM41.9771 26.8173V26.3766H41.8622L41.73 26.6797L41.5978 26.3766H41.4829V26.8173H41.564V26.4849L41.6879 26.7715H41.7721L41.896 26.4841V26.8173H41.9771Z" fill="#F79E1B"/>
</g>
<defs>
<clipPath id="clip0_2557_5787">
<rect width="48" height="40" fill="white"/>
</clipPath>
</defs>
</svg>
