<svg width="85" height="85" viewBox="0 0 85 85" fill="none" xmlns="http://www.w3.org/2000/svg">
<path d="M47.061 6V43.7212C47.061 45.4851 45.6712 46.7063 44.0034 46.7063H39.4169C39.139 46.7063 39 46.9777 39 47.1134V78.7286C40.1119 78.7286 41.2237 79 42.4746 79C63.1831 79 80 62.5818 80 42.3643C80 23.7751 65.6847 8.171 47.061 6ZM46.2271 62.4461C43.5864 62.4461 41.6407 60.2751 41.6407 57.9684C41.6407 55.3903 43.8644 53.4907 46.2271 53.4907C48.8678 53.4907 50.8136 55.6617 50.8136 57.9684C51.0915 60.4108 48.8678 62.4461 46.2271 62.4461ZM57.2068 62.4461C54.5661 62.4461 52.6203 60.2751 52.6203 57.9684C52.6203 55.3903 54.8441 53.4907 57.2068 53.4907C59.8475 53.4907 61.7932 55.6617 61.7932 57.9684C61.7932 60.2751 59.9864 62.4461 57.2068 62.4461ZM68.3254 62.4461C65.6847 62.4461 63.739 60.2751 63.739 57.9684C63.739 55.3903 65.9627 53.4907 68.3254 53.4907C70.9661 53.4907 72.9119 55.6617 72.9119 57.9684C72.9119 60.2751 70.9661 62.4461 68.3254 62.4461Z" fill="#00B956"/>
<path d="M43 6C22.0296 6 5 22.5722 5 42.9794C5 60.9212 17.8074 75.576 34.9778 79V45.7186C34.9778 44.212 36.3852 42.9794 37.7926 42.7054H42.437C42.7185 42.7054 42.8593 42.4315 42.8593 42.2946L43 6ZM35.6815 36.4052C33.0074 36.4052 31.037 34.2139 31.037 31.8856C31.037 29.2833 33.2889 27.3659 35.6815 27.3659C38.3556 27.3659 40.3259 29.5572 40.3259 31.8856C40.3259 34.2139 38.2148 36.4052 35.6815 36.4052Z" fill="#00B956"/>
</svg>
