<svg width="48" height="40" viewBox="0 0 48 40" fill="none" xmlns="http://www.w3.org/2000/svg">
<g clip-path="url(#clip0_2557_5779)">
<path fill-rule="evenodd" clip-rule="evenodd" d="M4.43871 13.3302C4.86754 13.3277 6.14199 13.2129 6.68182 15.0348C7.04545 16.2621 7.6247 18.2724 8.41957 21.0658H8.74329C9.59571 18.1208 10.1813 16.1105 10.5 15.0348C11.0455 13.1939 12.4091 13.3303 12.9545 13.3303L17.1629 13.3303V26.4212H12.8736V18.7065H12.586L10.195 26.4212H6.96788L4.57685 18.7008H4.28923V26.4212H0V13.3303L4.43871 13.3302ZM23.3221 13.3303V21.0507H23.6643L26.5727 14.7023C27.1373 13.4389 28.3406 13.3303 28.3406 13.3303H32.4913V26.4212H28.1125V18.7008H27.7703L24.9189 25.0492C24.3543 26.3068 23.094 26.4212 23.094 26.4212H18.9433V13.3303H23.3221ZM47.6264 19.5512C47.0156 21.282 45.0975 22.5216 42.9738 22.5216H38.3818V26.4212H34.2178V19.5512H47.6264Z" fill="#0F754E"/>
<path fill-rule="evenodd" clip-rule="evenodd" d="M43.1747 13.3303H33.9995C34.2178 16.2448 36.7277 18.7398 39.3259 18.7398H47.9158C48.4115 16.3175 46.705 13.3303 43.1747 13.3303Z" fill="url(#paint0_linear_2557_5779)"/>
</g>
<defs>
<linearGradient id="paint0_linear_2557_5779" x1="48" y1="16.7331" x2="33.9995" y2="16.7331" gradientUnits="userSpaceOnUse">
<stop stop-color="#1F5CD7"/>
<stop offset="1" stop-color="#02AEFF"/>
</linearGradient>
<clipPath id="clip0_2557_5779">
<rect width="48" height="40" fill="white"/>
</clipPath>
</defs>
</svg>
