<svg width="85" height="85" viewBox="0 0 85 85" fill="none" xmlns="http://www.w3.org/2000/svg">
<circle cx="43" cy="42" r="38" fill="#0099DE"/>
<path d="M45.0182 41.083C47.4182 41.083 49.1455 40.4345 50.2 39.1373C51.2545 37.8401 51.7818 36.0281 51.7818 33.7014C51.7818 32.6719 51.6455 31.7351 51.3727 30.8909C51.1 30.0467 50.5636 29.0971 50 28.5C49.4545 27.8823 48.8727 27.6376 48.0182 27.3082C47.1818 26.9787 46.1818 26.814 45.0182 26.814H38.2182V41.083H45.0182ZM44.0182 19C46.8182 19 49.2182 19.3809 51.2182 20.1428C53.2364 20.884 54.8909 21.9135 56.1818 23.2313C57.4909 24.5491 58.4545 26.1036 59.0727 27.895C59.6909 29.6863 60 31.6218 60 33.7014C60 35.9458 59.6818 38.0048 59.0455 39.8785C58.4091 41.7522 57.4364 43.3583 56.1273 44.6966C54.8182 46.035 53.1545 47.0851 51.1364 47.8469C49.1364 48.5882 46.7636 48.9588 44.0182 48.9588H38.2182V67H30V19H44.0182Z" fill="white"/>
</svg>
