<svg width="85" height="85" viewBox="0 0 85 85" fill="none" xmlns="http://www.w3.org/2000/svg">
<path d="M70.3206 21.48C71.9468 23.6107 73.3234 25.9254 74.4226 28.3779L43.2404 51.6734L30.2085 43.3943V33.4342L43.2404 41.7133L70.3206 21.48Z" fill="#21A038"/>
<path d="M16.9085 42.6913C16.9085 42.2444 16.9192 41.8004 16.9407 41.359L9.04301 40.9668C9.01613 41.5389 9.00001 42.1165 9.00001 42.6994C8.99665 47.2541 9.88063 51.7644 11.6013 55.9718C13.3219 60.1795 15.8453 64.0013 19.0267 67.2181L24.6287 61.5434C22.1798 59.0716 20.237 56.1335 18.9121 52.8982C17.5872 49.6629 16.9063 46.1941 16.9085 42.6913Z" fill="url(#paint0_linear_2544_5287)"/>
<path d="M43.233 16.0129C43.6738 16.0129 44.1118 16.0292 44.5473 16.051L44.9425 8.04431C44.3763 8.01706 43.8063 8.00344 43.233 8.00344C38.7366 7.99789 34.2838 8.89247 30.1297 10.6358C25.9757 12.3792 22.2023 14.937 19.0264 18.1624L24.6284 23.8398C27.0676 21.3571 29.9669 19.3875 33.1598 18.0442C36.3526 16.701 39.7758 16.0107 43.233 16.0129Z" fill="url(#paint1_linear_2544_5287)"/>
<path d="M43.2332 69.3705C42.7925 69.3705 42.3542 69.3705 41.9162 69.3351L41.521 77.339C42.0891 77.3681 42.6599 77.3827 43.2332 77.3827C47.7277 77.3874 52.1784 76.4922 56.3302 74.7484C60.4821 73.0045 64.253 70.4464 67.4265 67.2211L61.8352 61.5464C59.3956 64.0278 56.4965 65.9963 53.3043 67.339C50.1121 68.6817 46.6895 69.3722 43.2332 69.3705Z" fill="url(#paint2_linear_2544_5287)"/>
<path d="M58.072 20.668L64.7277 15.6962C58.6443 10.7038 51.0506 7.98614 43.2227 8.00005V16.0122C48.5234 16.0055 53.701 17.629 58.072 20.668Z" fill="url(#paint3_linear_2544_5287)"/>
<path d="M77.4639 42.6915C77.4682 40.6072 77.2883 38.5265 76.9262 36.4746L69.5582 41.9777C69.5582 42.2148 69.5582 42.4518 69.5582 42.6915C69.5601 46.4191 68.789 50.1055 67.2953 53.5118C65.8013 56.918 63.6177 59.9681 60.8862 62.4643L66.2007 68.4171C69.7518 65.168 72.5896 61.199 74.5299 56.7674C76.4704 52.3355 77.4699 47.5399 77.4639 42.6915Z" fill="#21A038"/>
<path d="M43.2336 69.3704C39.5552 69.3717 35.9175 68.59 32.556 67.0761C29.1947 65.5622 26.1845 63.3495 23.7204 60.5818L17.8496 65.965C21.0551 69.5645 24.9713 72.4408 29.3442 74.4078C33.7172 76.3746 38.4492 77.3881 43.2336 77.3824V69.3704Z" fill="url(#paint4_linear_2544_5287)"/>
<path d="M25.5804 22.9182L20.2686 16.9656C16.7165 20.214 13.8777 24.1827 11.9364 28.6146C9.99513 33.0463 8.99471 37.8422 9.00002 42.691H16.9085C16.9068 38.9636 17.678 35.2772 19.1718 31.871C20.6657 28.4648 22.849 25.4146 25.5804 22.9182Z" fill="url(#paint5_linear_2544_5287)"/>
<defs>
<linearGradient id="paint0_linear_2544_5287" x1="20.6261" y1="66.2183" x2="11.778" y2="40.9799" gradientUnits="userSpaceOnUse">
<stop offset="0.14" stop-color="#F1E813"/>
<stop offset="0.3" stop-color="#E6E418"/>
<stop offset="0.58" stop-color="#C9DA26"/>
<stop offset="0.89" stop-color="#A2CC39"/>
</linearGradient>
<linearGradient id="paint1_linear_2544_5287" x1="21.2844" y1="19.579" x2="43.6139" y2="11.1825" gradientUnits="userSpaceOnUse">
<stop offset="0.06" stop-color="#0FA7DF"/>
<stop offset="0.54" stop-color="#0098F8"/>
<stop offset="0.92" stop-color="#0290EA"/>
</linearGradient>
<linearGradient id="paint2_linear_2544_5287" x1="40.9996" y1="72.547" x2="66.1979" y2="66.93" gradientUnits="userSpaceOnUse">
<stop offset="0.12" stop-color="#A2CC39"/>
<stop offset="0.28" stop-color="#86C239"/>
<stop offset="0.87" stop-color="#219F38"/>
</linearGradient>
<linearGradient id="paint3_linear_2544_5287" x1="41.5777" y1="10.6835" x2="63.1428" y2="17.25" gradientUnits="userSpaceOnUse">
<stop offset="0.06" stop-color="#0290EA"/>
<stop offset="0.79" stop-color="#0C89CA"/>
</linearGradient>
<linearGradient id="paint4_linear_2544_5287" x1="19.8334" y1="64.9897" x2="43.3284" y2="73.654" gradientUnits="userSpaceOnUse">
<stop offset="0.13" stop-color="#F1E813"/>
<stop offset="0.3" stop-color="#EAE616"/>
<stop offset="0.53" stop-color="#D8DF1F"/>
<stop offset="0.8" stop-color="#BAD52D"/>
<stop offset="0.98" stop-color="#A2CC39"/>
</linearGradient>
<linearGradient id="paint5_linear_2544_5287" x1="11.9462" y1="43.6609" x2="21.5677" y2="18.9642" gradientUnits="userSpaceOnUse">
<stop offset="0.07" stop-color="#A2CC39"/>
<stop offset="0.26" stop-color="#81C45E"/>
<stop offset="0.92" stop-color="#0FA7DF"/>
</linearGradient>
</defs>
</svg>
