<svg width="95" height="85" viewBox="0 0 95 85" fill="none" xmlns="http://www.w3.org/2000/svg">
<g clip-path="url(#clip0_2544_5293)">
<path fill-rule="evenodd" clip-rule="evenodd" d="M82.3829 26.5943C85.9296 26.0718 89.1765 26.9194 91.3636 28.9756C93.385 30.8355 94.4121 33.4776 94.1471 36.2833C93.6827 41.4713 91.1314 45.6481 83.9737 52.5325L72.276 52.9241C72.276 52.9241 80.3953 45.6154 83.4765 42.0593C85.4652 39.7434 86.3265 37.2628 85.4979 35.5993C84.968 34.5543 83.809 34.0328 82.384 34.0983V26.5933L82.3829 26.5943ZM58.425 30.7046V37.4591L68.5647 36.3825V29.3018L58.425 30.7057V30.7046ZM50.141 61.2767V31.8478L57.0992 30.8672V61.2778H50.141V61.2767ZM22.6037 35.6636V41.3742L30.2913 40.5255V34.6197L22.6037 35.6647V35.6636ZM16.2746 61.2767V36.545L21.6093 35.7956V61.2767H16.2746ZM0.633331 38.6984V43.7555L14.4189 42.2556V36.8058L0.633331 38.6984ZM5.04028 44.049V61.2767H10.0774V43.5275L5.04028 44.049ZM22.6037 51.3914V45.5827L27.6397 45.1584V51.1296L22.6037 51.3914ZM22.6037 55.5672V61.2767H30.2913V55.3371L22.6037 55.5661V55.5672ZM58.425 49.4661V42.5818L65.0856 41.9949V49.1072L58.425 49.4661ZM58.425 54.5243V61.2767H68.5647V54.196L58.425 54.5233V54.5243ZM32.3127 61.2767V34.3263L38.3768 33.4776V61.2767H32.3127ZM39.5031 55.0774V61.2767H48.2853V54.8167L39.5031 55.0774ZM70.8183 54.1316L70.851 61.2778H94.5778V53.4455L70.8183 54.1316ZM71.1497 41.3077C70.7518 33.1514 74.1317 28.1597 81.0244 26.7241L81.0572 34.359C79.6005 34.9459 78.1755 36.0563 78.5059 40.6554L71.1487 41.3077H71.1497Z" fill="#1F2229"/>
</g>
<defs>
<clipPath id="clip0_2544_5293">
<rect width="95" height="35.8889" fill="white" transform="translate(0 26)"/>
</clipPath>
</defs>
</svg>
