<svg width="48" height="40" viewBox="0 0 48 40" fill="none" xmlns="http://www.w3.org/2000/svg">
<path fill-rule="evenodd" clip-rule="evenodd" d="M14.1333 26.5965L18.2065 13.1659H21.841L17.7675 26.5965H14.1333ZM12.5086 13.1696L9.23929 18.8628C8.40704 20.3539 7.92057 21.1071 7.68664 22.0493H7.63687C7.69476 20.8548 7.52815 19.3883 7.51243 18.5595L7.15145 13.1696H1.03357L0.970703 13.5308C2.54248 13.5308 3.47454 14.3204 3.731 15.9354L4.92346 26.5965H8.68865L16.3018 13.1696H12.5086ZM40.772 26.5965L40.6717 24.599L36.1334 24.5954L35.2053 26.5962H31.2596L38.4141 13.1913H43.2572L44.4688 26.5962H40.772V26.5965ZM40.3552 18.6742C40.3149 17.6816 40.2811 16.3344 40.3487 15.5191H40.295C40.0739 16.1858 39.1237 18.188 38.7059 19.1727L37.3536 22.1167H40.5402L40.3552 18.6742ZM25.6565 26.9782C23.0906 26.9782 21.3878 26.1642 20.172 25.4386L21.9034 22.7946C22.9947 23.405 23.8516 24.1094 25.8231 24.1094C26.457 24.1094 27.0679 23.9446 27.4148 23.344C27.9204 22.4703 27.2982 22.0004 25.8784 21.1967L25.1774 20.7408C23.0728 19.3027 22.1624 17.9368 23.1532 15.5524C23.7871 14.0273 25.4592 12.8712 28.2177 12.8712C30.1201 12.8712 31.9035 13.694 32.9427 14.498L30.9523 16.8324C29.9383 16.0121 29.0976 15.5972 28.1357 15.5972C27.3687 15.5972 26.7861 15.893 26.5849 16.2919C26.2063 17.0419 26.7072 17.5533 27.8132 18.2399L28.6468 18.7701C31.202 20.3817 31.8108 22.0716 31.1703 23.6515C30.069 26.3709 27.9125 26.9782 25.6565 26.9782ZM45.463 15.2433H45.2235V13.7873H45.776C46.1276 13.7873 46.307 13.9104 46.307 14.2059C46.307 14.4695 46.1448 14.5784 45.9269 14.6031L46.3348 15.2433H46.0642L45.688 14.6209H45.463V15.2433ZM45.7299 14.4168C45.9096 14.4168 46.0676 14.3992 46.0676 14.1881C46.0676 14.0123 45.8952 13.9911 45.7514 13.9911H45.4627V14.4168H45.7299ZM45.7228 15.806C44.9671 15.806 44.429 15.2399 44.429 14.4907C44.429 13.6993 45.0265 13.1754 45.7228 13.1754C46.4126 13.1754 47.0101 13.6993 47.0101 14.4907C47.0101 15.2818 46.4126 15.806 45.7228 15.806ZM45.7228 13.404C45.1533 13.404 44.7103 13.8504 44.7103 14.4907C44.7103 15.0885 45.0973 15.5773 45.7228 15.5773C46.2855 15.5773 46.7288 15.1343 46.7288 14.4907C46.7288 13.8504 46.2855 13.404 45.7228 13.404Z" fill="#1A1E71"/>
</svg>
