<svg width="85" height="85" viewBox="0 0 85 85" fill="none" xmlns="http://www.w3.org/2000/svg">
<path d="M62.7458 33.514L30.1116 66.1487C28.6366 67.6232 26.2456 67.6232 24.771 66.1487L5.56684 46.9445C4.0923 45.4694 4.0923 43.0784 5.56684 41.6039L38.201 8.96918C39.6761 7.49465 42.0671 7.49465 43.5416 8.96918L62.7458 28.1734C64.2209 29.6479 64.2209 32.0394 62.7458 33.514Z" fill="#E0E0E0"/>
<path d="M62.7461 28.1735L60.3498 25.7766C61.6631 27.0899 61.5317 29.35 60.0572 30.8245L27.4224 63.4593C25.9479 64.9343 23.6878 65.0652 22.3745 63.7519L24.7714 66.1488C26.2459 67.6233 28.6369 67.6233 30.112 66.1488L62.7461 33.5141C64.2212 32.0395 64.2212 29.648 62.7461 28.1735Z" fill="#9B9B9B"/>
<path d="M11.8421 45.6014C11.5793 45.6014 11.3171 45.501 11.1168 45.3007C10.7163 44.9002 10.7163 44.2513 11.1168 43.8508L27.1017 27.8658C27.5023 27.4653 28.1517 27.4653 28.5517 27.8658C28.9522 28.2664 28.9522 28.9158 28.5517 29.3158L12.5668 45.3013C12.3665 45.501 12.1043 45.6014 11.8421 45.6014Z" fill="#252D4C"/>
<path d="M16.9221 50.6812C16.6594 50.6812 16.3972 50.5808 16.1969 50.3805C15.7963 49.98 15.7963 49.3311 16.1969 48.9306L32.1818 32.9457C32.5823 32.5451 33.2318 32.5451 33.6318 32.9457C34.0323 33.3462 34.0323 33.9956 33.6318 34.3956L17.6469 50.3805C17.4466 50.5808 17.1844 50.6812 16.9221 50.6812Z" fill="#252D4C"/>
<path d="M37.6682 16.4075L34.4702 19.6049C33.2131 20.8621 33.2131 22.9 34.4702 24.1572C35.7274 25.4144 37.7659 25.4144 39.0231 24.1572L42.2205 20.9598C43.4776 19.7026 43.4776 17.6647 42.2205 16.4075C40.9633 15.1503 38.9248 15.1503 37.6682 16.4075Z" fill="#FFCD00"/>
<path d="M65.8275 43.1516H19.6753C17.5898 43.1516 15.8989 44.8424 15.8989 46.9279V74.0869C15.8989 76.1724 17.5898 77.8633 19.6753 77.8633H65.8275C67.9135 77.8633 69.6038 76.1724 69.6038 74.0869V46.9279C69.6044 44.8424 67.9135 43.1516 65.8275 43.1516Z" fill="#FFCD00"/>
<path d="M65.8273 43.1516H62.4473C64.5328 43.1516 66.2236 44.8424 66.2236 46.9279V74.0869C66.2236 76.1724 64.5328 77.8633 62.4473 77.8633H65.8273C67.9133 77.8633 69.6036 76.1724 69.6036 74.0869V46.9279C69.6042 44.8424 67.9133 43.1516 65.8273 43.1516Z" fill="#F0B538"/>
<path d="M15.8989 51.6836H69.6044V58.2082H15.8989V51.6836Z" fill="#575B7A"/>
<path d="M66.2236 51.6836H69.6037V58.2082H66.2236V51.6836Z" fill="#252D4C"/>
<path d="M56.4043 68.6337V72.6579C56.4043 72.9692 56.6564 73.2213 56.9677 73.2213H63.3684C63.6798 73.2213 63.9318 72.9692 63.9318 72.6579V68.6337C63.9318 68.3224 63.6798 68.0703 63.3684 68.0703H56.9677C56.6564 68.0703 56.4043 68.3224 56.4043 68.6337Z" fill="#F1F1F1"/>
<path d="M37.106 68.6337V72.6579C37.106 72.9692 37.3586 73.2213 37.6694 73.2213H51.2078C51.5191 73.2213 51.7712 72.9692 51.7712 72.6579V68.6337C51.7712 68.3224 51.5191 68.0703 51.2078 68.0703H37.6694C37.3586 68.0703 37.106 68.3224 37.106 68.6337Z" fill="#F1F1F1"/>
<path d="M31.5874 74.2466H24.8428C24.2761 74.2466 23.8174 73.7873 23.8174 73.2212C23.8174 72.6546 24.2761 72.1958 24.8428 72.1958H31.5874C32.154 72.1958 32.6128 72.6546 32.6128 73.2212C32.6128 73.7873 32.154 74.2466 31.5874 74.2466Z" fill="#252D4C"/>
</svg>
