<svg width="85" height="85" viewBox="0 0 85 85" fill="none" xmlns="http://www.w3.org/2000/svg">
<g clip-path="url(#clip0_2544_5289)">
<path d="M55.2744 13C38.6327 13 25.3951 26.481 25.3951 43C25.3951 59.7088 38.8219 73 55.2744 73C71.7269 73 85.1537 59.519 85.1537 43C85.3428 26.481 71.7269 13 55.2744 13ZM55.2744 54.2025C49.2229 54.2025 44.1169 49.076 44.1169 43C44.1169 36.924 49.2229 31.7975 55.2744 31.7975C61.3259 31.7975 66.4318 36.924 66.4318 43C66.4318 49.076 61.515 54.2025 55.2744 54.2025Z" fill="#8B3FFD"/>
<path d="M25.3951 21.7344V65.4052H14.6159L1 21.7344H25.3951Z" fill="#8B3FFD"/>
</g>
<defs>
<clipPath id="clip0_2544_5289">
<rect width="85" height="85" fill="white"/>
</clipPath>
</defs>
</svg>
