<svg width="128" height="32" viewBox="0 0 128 32" fill="none" xmlns="http://www.w3.org/2000/svg">
<path d="M54.0286 22.7406C54.0286 23.0556 53.9661 23.3075 53.9037 23.3705C53.8412 23.4335 53.5913 23.4965 53.2789 23.4965H52.1543C51.8419 23.4965 51.6545 23.4335 51.5296 23.3705C51.4671 23.3075 51.4046 23.0556 51.4046 22.7406V16.63H44.5322V22.7406C44.5322 23.0556 44.4697 23.3075 44.4073 23.3705C44.3448 23.4335 44.0949 23.4965 43.7825 23.4965H42.6579C42.3455 23.4965 42.0956 23.4335 42.0332 23.3705C41.9707 23.2446 41.9082 23.0556 41.9082 22.7406V9.00748C41.9082 8.6925 41.9707 8.44051 42.0332 8.37752C42.0956 8.31452 42.3455 8.25153 42.6579 8.25153H43.7825C44.0949 8.25153 44.3448 8.31452 44.4073 8.37752C44.4697 8.44051 44.5322 8.6925 44.5322 9.00748V14.3621H51.4046V9.00748C51.4046 8.6925 51.4671 8.44051 51.5296 8.37752C51.592 8.31452 51.7795 8.25153 52.1543 8.25153H53.2789C53.5913 8.25153 53.8412 8.31452 53.9037 8.37752C53.9661 8.44051 54.0286 8.6925 54.0286 9.00748V22.7406Z" fill="black"/>
<path fill-rule="evenodd" clip-rule="evenodd" d="M66.8988 18.0159C66.8988 19.7798 66.3989 21.1657 65.4618 22.2366C64.5247 23.3076 63.1502 23.8115 61.4633 23.8115C59.7765 23.8115 58.4644 23.3076 57.4648 22.2366C56.4652 21.1657 55.9654 19.7798 55.9654 18.0789C55.9654 16.315 56.4652 14.8661 57.4023 13.7952C58.402 12.7242 59.714 12.1573 61.4008 12.1573C63.0877 12.1573 64.4622 12.6612 65.3993 13.7322C66.4614 14.8031 66.8988 16.189 66.8988 18.0159ZM64.5247 18.0159C64.5247 16.882 64.2747 16 63.8374 15.3071C63.2751 14.4881 62.5254 14.1102 61.4633 14.1102C60.4637 14.1102 59.6515 14.4881 59.0892 15.3071C58.5894 16 58.402 16.882 58.402 18.0159C58.402 19.1498 58.6519 20.0318 59.0892 20.7247C59.6515 21.4807 60.4012 21.8587 61.4633 21.8587C62.4629 21.8587 63.2751 21.4807 63.7749 20.7247C64.2747 19.9688 64.5247 19.0868 64.5247 18.0159Z" fill="black"/>
<path d="M76.2076 22.9926C77.2697 22.3626 77.7695 21.4177 77.7695 20.1578C77.7695 19.0868 77.2697 18.2679 76.3326 17.7009C75.7703 17.3859 74.8331 17.071 73.5211 16.756C72.774 16.623 72.2742 16.4901 72.0217 16.4229C71.9153 16.3946 71.8528 16.378 71.8343 16.378C71.147 16.126 70.7722 15.685 70.7722 15.1811C70.7722 14.3621 71.4594 13.9212 72.7714 13.9212C73.2487 13.9212 73.6166 13.9947 73.9308 14.0575C74.0279 14.0769 74.1199 14.0953 74.2084 14.1102C74.5832 14.2991 74.8331 14.6771 75.0206 15.2441C75.1455 15.4331 75.3329 15.5591 75.7703 15.5591H76.6449C77.1448 15.5591 77.3947 15.4331 77.3947 15.1181C77.3947 14.0472 76.8324 13.2912 75.7703 12.7242C74.8956 12.2833 73.9585 12.0313 72.8339 12.0313C71.5844 12.0313 70.6472 12.2833 69.835 12.7242C68.8979 13.2912 68.3981 14.1731 68.3981 15.3071C68.3981 16.693 69.1478 17.6379 70.6472 18.0789C70.791 18.1514 71.1002 18.2239 71.5629 18.3323C71.9045 18.4124 72.3298 18.5121 72.8339 18.6459C73.7086 18.8348 74.2708 19.0238 74.4583 19.0868C75.1455 19.3388 75.4579 19.7798 75.4579 20.2838C75.4579 20.8507 75.1455 21.2287 74.6457 21.5437C74.2084 21.7327 73.7086 21.8586 73.0838 21.8586C72.5215 21.8586 71.9592 21.7327 71.5219 21.5437C71.2095 21.4177 70.9596 21.2287 70.8346 20.9767C70.7722 20.8507 70.6472 20.5987 70.5223 20.1578C70.3973 19.9688 70.2099 19.8428 69.7725 19.8428H68.9604C68.4605 19.8428 68.2106 20.0318 68.2106 20.3467C68.2106 21.4807 68.7105 22.3626 69.835 22.9926C70.7097 23.4965 71.7718 23.7485 72.9588 23.7485C74.2708 23.7485 75.3329 23.4965 76.2076 22.9926Z" fill="black"/>
<path d="M85.1421 13.4802C85.1421 13.7952 85.0797 14.0472 85.0172 14.1102C84.9547 14.1731 84.7048 14.2361 84.3924 14.2361H82.9555V23.2446C82.9555 23.4335 82.5181 23.4965 81.581 23.4965C80.8938 23.4965 80.5189 23.4335 80.5189 23.3076V14.2361H79.4568C79.1444 14.2361 78.8945 14.1731 78.832 14.1102C78.7696 14.0472 78.7071 13.7952 78.7071 13.4802V13.2282C78.7071 12.8502 78.7696 12.6612 78.832 12.5983C78.8945 12.5353 79.1444 12.4723 79.4568 12.4723H80.5189V9.88943C80.5189 9.57445 80.5814 9.32246 80.6439 9.25947C80.7063 9.19647 80.9562 9.13348 81.2686 9.13348H82.2058C82.5181 9.13348 82.768 9.19647 82.8305 9.25947C82.893 9.32246 82.9555 9.57445 82.9555 9.88943V12.4723H84.3924C84.7048 12.4723 84.9547 12.5353 85.0172 12.5983C85.0797 12.6612 85.1421 12.9132 85.1421 13.2282V13.4802Z" fill="black"/>
<path fill-rule="evenodd" clip-rule="evenodd" d="M96.388 18.4569C96.5129 18.3939 96.5754 18.2049 96.5754 17.9529C96.5754 16.252 96.0756 14.9291 95.2009 13.8582C94.2638 12.7242 93.0142 12.1573 91.4523 12.1573C89.8904 12.1573 88.5784 12.7242 87.6413 13.8582C86.7041 14.9921 86.2043 16.378 86.2043 18.0789C86.2043 19.7798 86.7041 21.1027 87.6413 22.1736C88.5784 23.2446 89.8904 23.7485 91.5148 23.7485C93.3266 23.7485 94.7011 23.0556 95.6382 21.7327C96.0756 21.1027 96.263 20.7247 96.263 20.4727C96.263 20.1578 96.0131 20.0318 95.5133 20.0318H94.7011C94.3262 20.0318 94.0763 20.0948 94.0139 20.2838C93.7015 20.9137 93.3891 21.3547 93.0142 21.6067C92.6394 21.8587 92.1396 21.9846 91.4523 21.9846C89.578 21.9846 88.5784 20.8507 88.5159 18.5829H95.7632C96.0756 18.5829 96.263 18.5199 96.388 18.4569ZM93.3266 14.8661C93.8264 15.3701 94.0763 16.063 94.1388 16.945H88.4535C88.7034 14.9921 89.6405 13.9842 91.3274 13.9842C92.1396 13.9842 92.8268 14.2991 93.3266 14.8661Z" fill="black"/>
<path d="M105.01 13.7952C105.01 14.2991 104.822 14.5511 104.51 14.5511H103.885C103.385 14.5511 102.948 14.6771 102.51 14.9921C102.073 15.3071 101.698 15.6851 101.511 16.189C101.261 16.756 101.073 17.7639 101.073 19.0868V22.7406C101.073 23.0556 101.011 23.3076 100.949 23.3706C100.886 23.4336 100.636 23.4965 100.324 23.4965H99.3866C99.0743 23.4965 98.8243 23.4336 98.7619 23.3706C98.6994 23.3076 98.6369 23.0556 98.6369 22.7406V13.2282C98.6369 12.9132 98.6994 12.6613 98.7619 12.5983C98.8243 12.5353 99.0743 12.4723 99.3866 12.4723H100.136C100.449 12.4723 100.699 12.5353 100.761 12.5983C100.824 12.6613 100.886 12.9132 100.886 13.2282V14.6771C101.698 13.0392 102.885 12.2833 104.322 12.2833C104.572 12.2833 104.76 12.3463 104.885 12.4093C104.947 12.5353 105.01 12.7242 105.01 13.0392V13.7952Z" fill="black"/>
<path d="M107.384 23.3705C107.446 23.3075 107.509 23.0556 107.509 22.7406V21.3547C107.509 21.0397 107.446 20.7877 107.384 20.7247C107.321 20.6617 107.071 20.5987 106.759 20.5987H105.322C105.01 20.5987 104.76 20.6617 104.697 20.7247C104.635 20.7877 104.572 21.0397 104.572 21.3547V22.7406C104.572 23.0556 104.635 23.3075 104.697 23.3705C104.76 23.4335 105.01 23.4965 105.322 23.4965H106.759C107.071 23.4965 107.321 23.4335 107.384 23.3705Z" fill="black"/>
<path d="M117.067 13.7952C117.067 14.2991 116.88 14.5511 116.567 14.5511H115.942C115.443 14.5511 115.005 14.6771 114.568 14.9921C114.131 15.3071 113.756 15.6851 113.568 16.189C113.256 16.756 113.131 17.7639 113.131 19.0868V22.7406C113.131 23.0556 113.069 23.3076 113.006 23.3706C112.944 23.4336 112.694 23.4965 112.381 23.4965H111.507C111.194 23.4965 110.944 23.4336 110.882 23.3706C110.819 23.3076 110.757 23.0556 110.757 22.7406V13.2282C110.757 12.9132 110.819 12.6613 110.882 12.5983C110.944 12.5353 111.194 12.4723 111.507 12.4723H112.256C112.569 12.4723 112.819 12.5353 112.881 12.5983C112.944 12.6613 113.006 12.9132 113.006 13.2282V14.6771C113.818 13.0392 115.005 12.2833 116.442 12.2833C116.692 12.2833 116.88 12.3463 117.005 12.4093C117.067 12.5353 117.13 12.7242 117.13 13.0392V13.7952H117.067Z" fill="black"/>
<path d="M126.501 22.6776C127.438 21.9216 127.938 20.8507 127.938 19.4648H128.001V13.2282C128.001 12.9132 127.938 12.6612 127.876 12.5982C127.813 12.5352 127.563 12.4722 127.251 12.4722H126.376C126.064 12.4722 125.814 12.5352 125.752 12.5982C125.689 12.6612 125.627 12.9132 125.627 13.2282V17.8269C125.627 18.8978 125.502 19.7168 125.252 20.2207C124.814 21.1657 124.19 21.6696 123.378 21.6696C122.878 21.6696 122.378 21.5436 121.878 21.3547C121.378 21.1657 121.066 20.7877 120.941 20.2837C120.878 20.0317 120.816 19.4648 120.816 18.7088V13.1652C120.816 12.8502 120.754 12.5982 120.691 12.5352C120.629 12.4722 120.379 12.4092 120.066 12.4092H119.129C118.817 12.4092 118.567 12.4722 118.504 12.5352C118.442 12.5982 118.379 12.8502 118.379 13.1652V19.4648C118.379 20.9137 118.817 21.9846 119.754 22.7406C120.566 23.4335 121.691 23.7485 123.128 23.7485C124.502 23.7485 125.627 23.4335 126.501 22.6776Z" fill="black"/>
<path d="M31.6431 16.0311C31.6431 24.8154 24.5492 31.9056 15.8373 31.9056C7.12547 31.9056 0.09375 24.8154 0.09375 16.0311C0.09375 7.18401 7.12547 0.093811 15.8373 0.093811C24.5492 0.093811 31.6431 7.18401 31.6431 16.0311Z" fill="url(#paint0_radial_702_3464)"/>
<path opacity="0.86" d="M21.7579 3.94431C22.0063 3.94431 22.1926 3.94431 22.441 3.94431C20.5779 3.00498 18.4663 2.504 16.2305 2.504C8.59144 2.504 2.38086 8.82885 2.38086 16.5314C2.38086 16.9071 2.38086 17.2829 2.44297 17.596C5.29983 9.64294 12.8767 3.94431 21.7579 3.94431Z" fill="url(#paint1_radial_702_3464)"/>
<path d="M30.7099 15.5295C30.5232 9.38046 26.6651 4.04712 20.878 1.91379L20.7535 1.85104L19.6334 4.04712L19.4467 3.79614C19.1356 3.48242 18.7 3.23144 18.2644 3.23144C17.3932 3.23144 16.6465 3.98438 16.6465 4.86281C16.6465 5.74124 17.331 6.43144 18.2022 6.49418H18.5133L17.331 9.00398L19.1978 11.3883L19.3845 11.1373C19.7579 10.6354 20.3179 10.3216 21.0024 10.3216C22.1225 10.3216 22.9937 11.2628 22.9937 12.3295C22.9937 13.1452 22.4959 13.8981 21.6869 14.2118L21.438 14.3373L23.2426 16.7216L30.6477 15.7177L30.7099 15.5295Z" fill="url(#paint2_linear_702_3464)"/>
<path d="M15.868 0C7.09395 0 0 7.15294 0 16C0 24.8471 7.09395 32 15.868 32C24.6421 32 31.7361 24.8471 31.7361 16C31.7983 7.15294 24.6421 0 15.868 0ZM30.5538 15.5608L23.4598 16.502L21.8419 14.4314C22.6509 14.1176 23.2731 13.302 23.2731 12.3608C23.2731 11.1059 22.2775 10.102 21.0329 10.102C20.2862 10.102 19.6639 10.4784 19.2283 11.0431L17.6104 8.97255L18.855 6.27451H18.2327C17.486 6.27451 16.8637 5.64706 16.8637 4.89412C16.8637 4.14118 17.486 3.51373 18.2327 3.51373C18.6061 3.51373 19.0417 3.70196 19.2906 4.01569L19.7262 4.51765L20.8463 2.19608C26.3845 4.14118 30.3671 9.41176 30.5538 15.5608ZM19.7884 23.4667C19.3528 24.3451 18.9794 25.0353 18.6061 25.7255L9.83196 26.2275L9.58305 25.851C9.20969 25.349 8.83632 24.8471 8.40073 24.2196C9.27192 23.9059 9.83196 23.0902 9.83196 22.149C9.83196 20.8941 8.83632 19.8902 7.59177 19.8902C6.96949 19.8902 6.34722 20.1412 5.91162 20.6431C5.53826 20.0784 5.22712 19.6392 4.97821 19.1373V19.0745C5.91162 16.3137 6.96949 13.6157 8.15182 10.9176C8.83632 10.7922 9.52083 10.6667 10.392 10.4784C10.392 10.5412 10.392 10.5412 10.392 10.6039C10.392 11.8588 11.3877 12.8627 12.6322 12.8627C13.8768 12.8627 14.8724 11.8588 14.8724 10.6039C14.8724 10.2902 14.8102 10.0392 14.6857 9.78824C15.4947 9.66275 16.1792 9.6 16.8015 9.47451H16.9259L19.415 12.7373L19.6639 11.9843C19.8506 11.3569 20.3484 10.9804 20.9707 10.9804C21.7174 10.9804 22.3397 11.6078 22.3397 12.3608C22.3397 13.1137 21.7797 13.7412 21.0329 13.7412L20.2862 13.8039L22.7753 17.0039C22.4642 17.7569 22.0908 18.5725 21.6552 19.5137C21.2818 19.2 20.784 19.0118 20.2862 19.0118C19.0417 19.0118 18.046 20.0157 18.046 21.2706C18.1082 22.3373 18.7927 23.2157 19.7884 23.4667ZM15.868 1.2549C17.2993 1.2549 18.7305 1.44314 20.0373 1.88235L19.4772 3.07451C19.1039 2.82353 18.6683 2.69804 18.2327 2.69804C16.9881 2.69804 15.9925 3.70196 15.9925 4.95686C15.9925 5.96078 16.6148 6.83922 17.5482 7.0902L16.7392 8.72157H16.6148C15.8058 8.84706 14.9346 8.97255 13.8768 9.09804L13.1923 9.22353L13.6278 9.78824C13.8145 10.0392 13.939 10.3529 13.939 10.6667C13.939 11.4196 13.3167 12.0471 12.57 12.0471C11.8232 12.0471 11.201 11.4196 11.201 10.6667C11.201 10.4784 11.201 10.3529 11.2632 10.1647L11.5121 9.47451L10.8276 9.6C9.76974 9.78824 8.89855 9.97647 8.02736 10.102L5.22712 5.89804C7.90291 3.07451 11.6988 1.2549 15.868 1.2549ZM4.66707 6.58824L7.46731 10.6667C6.28499 13.3647 5.22712 16.1255 4.29371 18.8863L1.61792 19.2627C1.36901 18.1961 1.24455 17.1294 1.24455 16C1.24455 12.4235 2.55133 9.09804 4.66707 6.58824ZM1.8046 20.0784L4.35593 19.702C4.7293 20.3294 5.16489 20.9569 5.66271 21.7098L6.09831 22.3373L6.40944 21.6471C6.65836 21.1451 7.15618 20.8314 7.654 20.8314C8.40073 20.8314 9.023 21.4588 9.023 22.2118C9.023 22.9647 8.46296 23.5922 7.71622 23.5922L6.96949 23.6549L7.40509 24.2824C7.96513 25.098 8.46296 25.7882 8.96078 26.4157L9.20969 26.7922L8.52518 28.8C5.28935 26.8549 2.86247 23.7804 1.8046 20.0784ZM9.27191 29.1765L10.0186 27.1059L18.7927 26.5412L20.9085 28.8L21.0952 28.0471C21.2818 27.4196 21.7797 27.0431 22.4642 27.0431C23.0242 27.0431 23.522 27.3569 23.771 27.9216L23.8332 27.9843C23.8332 27.9843 23.9576 28.1725 23.8954 28.4235C21.593 29.9294 18.9172 30.8078 15.9925 30.8078C13.5034 30.8078 11.2632 30.2431 9.27191 29.1765ZM24.5799 27.9216C24.5177 27.7961 24.5177 27.6706 24.4555 27.6078C24.0821 26.7922 23.3354 26.2902 22.4019 26.2902C21.593 26.2902 20.9085 26.6667 20.5351 27.2941L19.415 26.0392C19.8506 25.2235 20.2862 24.3451 20.8463 23.2784L21.1574 22.651L20.4107 22.7137C20.4107 22.7137 20.3484 22.7137 20.2862 22.7137C19.5395 22.7137 18.9172 22.0863 18.9172 21.3333C18.9172 20.5804 19.5395 19.9529 20.2862 19.9529C20.7218 19.9529 21.1574 20.2039 21.4063 20.5804L21.8419 21.1451L22.153 20.5176C22.6509 19.3882 23.0864 18.3843 23.522 17.4431L30.4915 16.502C30.4293 21.1451 28.1269 25.2863 24.5799 27.9216Z" fill="url(#paint3_linear_702_3464)"/>
<defs>
<radialGradient id="paint0_radial_702_3464" cx="0" cy="0" r="1" gradientUnits="userSpaceOnUse" gradientTransform="translate(15.8684 15.9999) scale(15.7748 15.906)">
<stop stop-color="#F69320"/>
<stop offset="0.4888" stop-color="#F69320"/>
<stop offset="1" stop-color="#F06724"/>
</radialGradient>
<radialGradient id="paint1_radial_702_3464" cx="0" cy="0" r="1" gradientUnits="userSpaceOnUse" gradientTransform="translate(21.1788 22.3659) rotate(-134.763) scale(21.9147 21.9139)">
<stop offset="0.878171" stop-color="#F58B21" stop-opacity="0"/>
<stop offset="0.932383" stop-color="#FFC83A" stop-opacity="0.8"/>
<stop offset="0.994339" stop-color="white"/>
</radialGradient>
<linearGradient id="paint2_linear_702_3464" x1="17.3416" y1="3.50482" x2="30.1892" y2="16.2465" gradientUnits="userSpaceOnUse">
<stop stop-color="#504F4F"/>
<stop offset="0.5"/>
</linearGradient>
<linearGradient id="paint3_linear_702_3464" x1="4.65326" y1="4.69346" x2="27.3151" y2="27.1684" gradientUnits="userSpaceOnUse">
<stop stop-color="#F2F2F2"/>
<stop offset="1" stop-color="#B3B3B3"/>
</linearGradient>
</defs>
</svg>
